<svg width="46" height="36" viewBox="0 0 46 36" fill="none" xmlns="http://www.w3.org/2000/svg">
<path d="M4.20727 22.3892C6.76892 26.4288 11.2051 30.555 18.6777 33.7864C19.1598 33.9953 19.8733 34.2777 20.4546 34.5037C20.7477 34.6176 21.0115 34.7189 21.202 34.7917L21.4278 34.8776L21.4893 34.901L21.5055 34.9071L21.5072 34.9077C21.6541 34.9643 21.8213 35 22 35C22.1781 35 22.3454 34.9645 22.4928 34.9077L22.4945 34.9071L22.5107 34.901L22.5722 34.8776L22.798 34.7917C22.9885 34.7189 23.2523 34.6176 23.5454 34.5037C24.1268 34.2777 24.8402 33.9953 25.3223 33.7864C32.7949 30.555 37.2311 26.4288 39.7928 22.3892C42.3506 18.3556 43 14.4709 43 11.7754C43 5.80278 38.0532 1 32 1C27.5758 1 23.7427 3.5656 22 7.27833C20.2572 3.5656 16.4241 1 12 1C5.94687 1 1 5.80278 1 11.7754C1 14.4709 1.64939 18.3556 4.20727 22.3892Z" fill="#FF8E8E" stroke="white" stroke-width="2"/>
<circle cx="34.5" cy="25.5" r="7.5" fill="white"/>
<path d="M39.033 23.2502H36.75V20.967C36.75 20.448 36.3292 20.0273 35.8103 20.0273H34.1897C33.6709 20.0273 33.25 20.4479 33.25 20.967V23.2502H30.967C30.4479 23.2502 30.0272 23.6708 30.0272 24.1899V25.8104C30.0272 26.3292 30.4478 26.7502 30.967 26.7502H33.25V29.033C33.25 29.5522 33.6708 29.9728 34.1897 29.9728H35.8103C36.3293 29.9728 36.75 29.5521 36.75 29.033V26.7502H39.033C39.5521 26.7502 39.9728 26.3292 39.9728 25.8104V24.1899C39.9728 23.6708 39.5519 23.2502 39.033 23.2502Z" fill="#FF8E8E" stroke="white"/>
<path d="M35 14.5C29.2009 14.5 24.5 19.2011 24.5 25C24.5 30.7991 29.2009 35.5 35 35.5C40.7989 35.5 45.5 30.7991 45.5 25C45.5 19.2011 40.7989 14.5 35 14.5ZM35 32C31.1406 32 28 28.8594 28 25C28 21.1407 31.1406 18 35 18C38.8593 18 42 21.1407 42 25C42 28.8594 38.8593 32 35 32Z" fill="#FF8E8E" stroke="white"/>
</svg>
