<svg width="40" height="40" viewBox="0 0 40 40" fill="none" xmlns="http://www.w3.org/2000/svg">
<path d="M13.8288 13.8991C13.8289 13.8991 13.8289 13.8991 13.829 13.8991M13.8288 13.8991H13.8291H13.829M13.8288 13.8991H13.829M13.8288 13.8991H13.829M26.1713 26.8452C26.1712 26.8452 26.1712 26.8452 26.1711 26.8452M26.1713 26.8452H26.171H26.1711M26.1713 26.8452H26.1711M26.1713 26.8452H26.1711M38.0001 17.7941V17.794C38.0004 17.5212 37.9718 17.2601 37.922 17.0136C37.5877 15.2641 36.0664 13.885 34.1696 13.8874H34.1692L26.3722 13.8988L26.3839 5.87287V5.87268C26.3865 4.01715 25.0825 2.4275 23.2896 2.07856C23.0434 2.0277 22.7852 1.99961 22.5181 2L22.5211 4L22.5181 2L20.0029 2.00369L19.9971 2.00369L17.482 2.00007C17.482 2.00007 17.482 2.00007 17.4819 2.00007C17.2149 1.99968 16.9567 2.02777 16.7105 2.07863C14.9177 2.42762 13.6136 4.01709 13.6163 5.87288V5.8729L13.6279 13.8988L5.83086 13.8874H5.83047C3.93369 13.885 2.41271 15.2642 2.0782 17.0132C2.02826 17.2599 1.99962 17.5212 2 17.794L2 17.7942L2.00375 20.3691L2.00375 20.3748L2.00007 22.9498V22.9499C1.99969 23.2227 2.02833 23.484 2.07825 23.7306C2.41255 25.4792 3.93315 26.8595 5.83086 26.8567C5.83094 26.8567 5.83102 26.8567 5.8311 26.8567L13.6279 26.8455L13.6171 34.127V34.1272C13.6146 35.9793 14.9137 37.5667 16.7018 37.9196C16.9497 37.9714 17.2105 38.0003 17.481 37.9999L19.9972 37.9962H20.003L22.5191 37.9998C22.7906 38.0002 23.0512 37.9711 23.2978 37.9196C25.0862 37.5669 26.3855 35.9794 26.3829 34.1271V34.1269L26.3722 26.8455L34.169 26.8566C34.1691 26.8566 34.1692 26.8566 34.1693 26.8566C36.067 26.8594 37.5875 25.4791 37.9219 23.7306C37.9718 23.4839 38.0004 23.2226 38.0001 22.9498V22.9497L37.9963 20.3748V20.369L38.0001 17.7941ZM26.1711 13.8991C26.1711 13.8991 26.1712 13.8991 26.1712 13.8991H26.1711ZM13.829 26.8452C13.8289 26.8452 13.8289 26.8452 13.8288 26.8452H13.829Z" fill="#FFDB1D" stroke="#FFB001" stroke-width="4"/>
<path d="M37.0001 17.7926V17.7926C37.0004 17.5889 36.9788 17.3929 36.9408 17.2065C36.6938 15.9009 35.5636 14.8856 34.1709 14.8874H34.1707L26.1726 14.8991H26.1726C25.9595 14.8994 25.7629 14.8143 25.6122 14.6653C25.4647 14.5105 25.3716 14.2971 25.372 14.0555L25.384 5.87141L25.384 5.87131C25.3859 4.48735 24.4131 3.31322 23.093 3.05905C22.9094 3.02073 22.7175 2.99971 22.5197 3L20.0016 3.00369H19.9987L17.4806 3.00007C17.4806 3.00007 17.4806 3.00007 17.4806 3.00007C17.2827 2.99978 17.0909 3.02079 16.9072 3.05912C15.5873 3.31334 14.6143 4.48735 14.6163 5.87144L14.6282 14.0555C14.6285 14.297 14.5356 14.5104 14.388 14.6654C14.2372 14.8145 14.0406 14.8994 13.8276 14.8991H13.8276L5.82946 14.8874H5.82927C4.43661 14.8857 3.30652 15.901 3.05946 17.2063C3.02135 17.3928 2.99978 17.589 3.00006 17.7926L3.00006 17.7927L3.00381 20.3705V20.3734L3.00013 22.9513L3.00013 22.9513C2.99984 23.155 3.02142 23.351 3.05951 23.5375C3.30643 24.8427 4.43633 25.8588 5.82949 25.8567C5.82953 25.8567 5.82957 25.8567 5.82961 25.8567L13.8276 25.8452H13.8277C14.0409 25.8449 14.2375 25.9299 14.3881 26.0788C14.5356 26.2337 14.6285 26.447 14.6282 26.6883L14.6172 34.1285V34.1286C14.6153 35.5099 15.5845 36.6825 16.901 36.9396C17.0859 36.9786 17.2795 37.0002 17.4796 36.9999L19.9987 36.9962H20.0016L22.5206 36.9998C22.7213 37.0001 22.9148 36.9784 23.0991 36.9396C24.4157 36.6825 25.3849 35.51 25.383 34.1285L25.383 34.1284L25.372 26.6883C25.3716 26.447 25.4645 26.2337 25.612 26.0788C25.7628 25.9299 25.9594 25.8449 26.1726 25.8452H26.1726L34.1706 25.8566C34.1707 25.8566 34.1707 25.8566 34.1708 25.8566C35.5639 25.8587 36.6937 24.8427 36.9407 23.5375C36.9788 23.351 37.0004 23.1549 37.0001 22.9512V22.9512L36.9964 20.3734V20.3705L37.0001 17.7926Z" fill="#FFDB1D" stroke="white" stroke-width="2"/>
</svg>
