<svg width="24" height="24" viewBox="0 0 24 24" fill="none" xmlns="http://www.w3.org/2000/svg">
<g clip-path="url(#clip0_88_6028)">
<g clip-path="url(#clip1_88_6028)">
<path d="M14.4647 8.04784V2.83838L0.839996 11.9999L14.4647 21.1615V15.952H22.88V8.04784H14.4647Z" fill="white"/>
</g>
<path d="M19.8206 5.9981H16.9815C17.2748 4.63153 16.7293 3.23458 15.5789 2.42607C14.9908 2.01211 14.2977 1.79248 13.5768 1.79248C12.9057 1.79248 12.2531 1.98486 11.6889 2.34868L11.6294 2.38742L11.5717 2.42874L2.31817 9.10879C1.39129 9.77996 0.839996 10.8601 0.839996 12.0002C0.839996 13.1399 1.39129 14.2201 2.31514 14.8889L11.5717 21.5713L11.6294 21.6126L11.6889 21.6513C12.2531 22.0151 12.9057 22.2075 13.5768 22.2075C14.2981 22.2075 14.9908 21.9882 15.5804 21.5728C16.7274 20.7665 17.2733 19.3711 16.9815 18.0022H19.8206C21.9267 18.0022 23.64 16.2889 23.64 14.1828V9.81706C23.64 7.71148 21.9267 5.9981 19.8206 5.9981ZM20.9205 14.1829C20.9205 14.7904 20.428 15.2828 19.8206 15.2828H13.5541L14.3182 18.5532C14.3887 18.856 14.2692 19.1705 14.015 19.3491C13.8837 19.4417 13.7305 19.488 13.5768 19.488C13.4334 19.488 13.2896 19.4474 13.1637 19.3662L3.91011 12.6862C3.69004 12.5268 3.55952 12.2718 3.55952 12.0002C3.55952 11.7286 3.69004 11.4732 3.91011 11.3139L13.1637 4.6338C13.2896 4.55262 13.4334 4.512 13.5768 4.512C13.7305 4.512 13.8837 4.55867 14.015 4.65085C14.2692 4.82956 14.3891 5.14444 14.3182 5.44645L13.5541 8.71762H19.8206C20.428 8.71762 20.9205 9.20969 20.9205 9.81715V14.1829Z" fill="#FFB001"/>
</g>
<defs>
<clipPath id="clip0_88_6028">
<rect width="22.8" height="22.8" fill="white" transform="translate(0.839996 0.600098)"/>
</clipPath>
<clipPath id="clip1_88_6028">
<rect width="22.04" height="19.76" fill="white" transform="translate(0.839996 2.12012)"/>
</clipPath>
</defs>
</svg>
