<svg width="40" height="40" viewBox="0 0 40 40" fill="none" xmlns="http://www.w3.org/2000/svg">
<g opacity="0.7" clip-path="url(#clip0_69_737)">
<path d="M35.4547 2.38281H9.04145C6.53192 2.38281 4.49036 4.4243 4.49036 6.92797C4.49036 8.20477 5.00786 9.3768 5.88801 10.213L6.08098 12.5077L6.1745 13.6855L6.10841 13.6082C4.33669 15.1821 2.84544 16.8991 1.76637 18.5994C1.23278 19.4522 0.798014 20.2996 0.490124 21.1417C0.181686 21.9838 -3.2614e-05 22.8145 -3.2614e-05 23.6454C-0.00534511 24.5316 0.22567 25.4391 0.770592 26.1931C1.31012 26.9524 2.12965 27.4973 3.08731 27.8053C3.4559 27.9267 3.82997 27.9708 4.19325 27.9708C5.11215 27.9648 6.00958 27.701 6.96669 27.3103C8.6395 26.6171 10.5054 25.4666 12.4367 24.0909C13.0311 23.662 13.7022 23.1499 14.4122 22.5888V23.6233C14.4122 25.5987 16.0135 27.2001 17.989 27.2001H30.2765C32.2519 27.2001 33.8532 25.5987 33.8532 23.6233V9.92125H36.2634L34.5358 30.7935C34.3322 33.2204 32.3068 35.0855 29.8692 35.0855H14.7973C12.365 35.0855 10.3343 33.2203 10.1365 30.7935L9.92161 28.2179L9.82809 27.1013C8.95325 27.6074 8.14989 28.0148 7.39051 28.3281L7.4013 28.4275L7.61036 31.0027C7.91887 34.7117 11.0775 37.6167 14.7973 37.6167H29.8692C33.5948 37.6167 36.7531 34.7116 37.0561 31.0027L38.7945 10.0094C39.5597 9.18391 39.9999 8.09461 39.9999 6.92797C39.9999 4.4243 37.9638 2.38281 35.4547 2.38281ZM14.412 19.0669C13.7349 19.6338 13.0911 20.1567 12.5247 20.5968C10.7744 21.9451 9.04145 23.1391 7.53887 23.9699C6.7909 24.388 6.10301 24.7131 5.51942 24.9221C4.94176 25.1366 4.46294 25.2246 4.19317 25.2193C4.06145 25.2193 3.97872 25.2027 3.9459 25.1913C3.41176 25.0102 3.15872 24.8006 3.00442 24.5863C2.85075 24.3659 2.7513 24.0908 2.7513 23.6453C2.74598 23.238 2.84536 22.699 3.07645 22.088C3.40645 21.1637 4.01739 20.0798 4.85356 18.9734C5.32153 18.3516 5.86059 17.7191 6.45497 17.0968L6.58122 18.588L6.95575 23.0344L7.0052 23.007C7.72044 22.6109 8.51301 22.1154 9.3659 21.5323L8.91989 16.1451L8.82637 15.0279L8.40286 9.92117H14.4119V19.0669H14.412ZM14.412 8.60086H7.91887C7.37934 8.23758 7.022 7.62656 7.022 6.92797C7.022 5.81609 7.92426 4.91391 9.04145 4.91391H14.4121L14.412 8.60086ZM32.2025 8.60086V9.92117V23.6233C32.2025 24.1569 31.9881 24.6303 31.6409 24.9823C31.289 25.3348 30.8154 25.5493 30.2765 25.5493H17.9888C17.4551 25.5493 16.9764 25.3348 16.6297 24.9823C16.2772 24.6303 16.0629 24.157 16.0629 23.6233V21.2352V17.6417V9.92117V8.60086V4.91391H32.2025V8.60086ZM36.566 8.60086H33.8533V4.91391H35.4547C36.566 4.91391 37.4689 5.81609 37.4689 6.92797C37.4688 7.62656 37.1055 8.23758 36.566 8.60086Z" fill="#573F1B"/>
<path d="M29.7285 14.662C30.0327 14.662 30.2788 14.4158 30.2788 14.1117V12.147C30.2788 11.8429 30.0327 11.5967 29.7285 11.5967C29.4243 11.5967 29.1782 11.8428 29.1782 12.147V14.1117C29.1783 14.4158 29.4244 14.662 29.7285 14.662Z" fill="#573F1B"/>
<path d="M29.7285 19.5736C30.0327 19.5736 30.2788 19.3274 30.2788 19.0233V17.0586C30.2788 16.7549 30.0327 16.5083 29.7285 16.5083C29.4243 16.5083 29.1782 16.7549 29.1782 17.0586V19.0233C29.1783 19.3275 29.4244 19.5736 29.7285 19.5736Z" fill="#573F1B"/>
<path d="M29.7285 9.75029C30.0327 9.75029 30.2788 9.5042 30.2788 9.19998V7.23537C30.2788 6.93123 30.0327 6.68506 29.7285 6.68506C29.4243 6.68506 29.1782 6.93115 29.1782 7.23537V9.19998C29.1783 9.5042 29.4244 9.75029 29.7285 9.75029Z" fill="#573F1B"/>
<path d="M28.6279 23.6216H29.7286C29.8737 23.6216 30.015 23.563 30.1176 23.4604C30.2203 23.3578 30.2789 23.2159 30.2789 23.0713V21.9707C30.2789 21.6666 30.0327 21.4204 29.7286 21.4204C29.4244 21.4204 29.1783 21.6666 29.1783 21.9707V22.521H28.6279C28.3238 22.521 28.0776 22.7671 28.0776 23.0713C28.0776 23.3749 28.3237 23.6216 28.6279 23.6216Z" fill="#573F1B"/>
<path d="M23.0108 23.6216H25.2576C25.5617 23.6216 25.8079 23.375 25.8079 23.0713C25.8079 22.7672 25.5618 22.521 25.2576 22.521H23.0108C22.7066 22.521 22.4604 22.7671 22.4604 23.0713C22.4605 23.3749 22.7066 23.6216 23.0108 23.6216Z" fill="#573F1B"/>
<path d="M18.5398 23.6217H19.6403C19.9439 23.6217 20.1906 23.375 20.1906 23.0713C20.1906 22.7672 19.9439 22.521 19.6403 22.521H19.09V21.9707C19.09 21.6666 18.8434 21.4204 18.5397 21.4204C18.2356 21.4204 17.9894 21.6666 17.9894 21.9707V23.0713C17.9894 23.2158 18.048 23.3577 18.1506 23.4603C18.2534 23.5631 18.3947 23.6217 18.5398 23.6217Z" fill="#573F1B"/>
<path d="M18.5397 19.574C18.8433 19.574 19.09 19.3273 19.09 19.0237V17.0591C19.09 16.7549 18.8434 16.5088 18.5397 16.5088C18.2356 16.5088 17.9894 16.7549 17.9894 17.0591V19.0237C17.9895 19.3274 18.2356 19.574 18.5397 19.574Z" fill="#573F1B"/>
<path d="M18.5397 14.662C18.8433 14.662 19.09 14.4158 19.09 14.1117V12.147C19.09 11.8433 18.8434 11.5967 18.5397 11.5967C18.2356 11.5967 17.9894 11.8433 17.9894 12.147V14.1117C17.9895 14.4158 18.2356 14.662 18.5397 14.662Z" fill="#573F1B"/>
<path d="M18.5397 9.75029C18.8433 9.75029 19.09 9.5042 19.09 9.19998V7.23537C19.09 6.93123 18.8434 6.68506 18.5397 6.68506C18.2356 6.68506 17.9894 6.93115 17.9894 7.23537V9.19998C17.9895 9.5042 18.2356 9.75029 18.5397 9.75029Z" fill="#573F1B"/>
</g>
<defs>
<clipPath id="clip0_69_737">
<rect width="40" height="40" fill="white"/>
</clipPath>
</defs>
</svg>
