<svg width="37" height="38" viewBox="0 0 37 38" fill="none" xmlns="http://www.w3.org/2000/svg">
<rect width="37" height="38" rx="10" fill="#077205" fill-opacity="0.23"/>
<rect x="5.22705" y="12" width="26.3835" height="19.5" fill="#FFDB1D"/>
<path d="M13.2021 8.76118C14.2835 8.76118 15.1408 7.8676 15.1408 6.78849V4.47175C15.1408 3.39401 14.2834 2.5 13.2021 2.5C12.1211 2.5 11.263 3.39377 11.263 4.47175V6.78843C11.263 7.86783 12.121 8.76118 13.2021 8.76118Z" fill="#FFB001" stroke="white"/>
<path d="M23.8111 8.76118C24.892 8.76118 25.7498 7.86771 25.7498 6.78849V4.47175C25.7498 3.39389 24.8918 2.5 23.8111 2.5C22.7301 2.5 21.872 3.39377 21.872 4.47175V6.78839C21.872 6.7884 21.872 6.78842 21.872 6.78843C21.872 7.86787 22.73 8.76118 23.8111 8.76118Z" fill="#FFB001" stroke="white"/>
<path d="M26.5136 4.59863H26.0136V5.09863V6.789C26.0136 8.04977 25.0144 9.05567 23.811 9.05567C22.6076 9.05567 21.6081 8.04965 21.6081 6.789V5.09863V4.59863H21.1081H15.9046H15.4046V5.09863V6.789C15.4046 8.04971 14.4049 9.05567 13.2021 9.05567C11.9986 9.05567 10.9991 8.04964 10.9991 6.789V5.09863V4.59863H10.4991H8.04083C5.5222 4.59863 3.5 6.68494 3.5 9.23388V28.8653C3.5 31.4142 5.5222 33.5005 8.04083 33.5005H28.7961C31.3147 33.5005 33.3369 31.4142 33.3369 28.8653V9.23388C33.3369 6.68494 31.3147 4.59863 28.7961 4.59863H26.5136ZM30.3707 28.8653C30.3707 29.7707 29.653 30.4884 28.796 30.4884H8.04083C7.18389 30.4884 6.46617 29.7707 6.46617 28.8653V12.3473H30.3707V28.8653Z" fill="#FFB001" stroke="white"/>
<path d="M17.4178 25.4131H13.7769V29.1391H17.4178V25.4131Z" fill="#FFB001"/>
<path d="M17.4178 19.6387H13.7769V23.3647H17.4178V19.6387Z" fill="#FFB001"/>
<path d="M11.7747 25.4131H8.13428V29.1391H11.7747V25.4131Z" fill="#FFB001"/>
<path d="M11.7747 19.6387H8.13428V23.3647H11.7747V19.6387Z" fill="#FFB001"/>
<path d="M28.7025 13.8643H25.062V17.5898H28.7025V13.8643Z" fill="#FFB001"/>
<path d="M23.0599 13.8643H19.4189V17.5898H23.0599V13.8643Z" fill="#FFB001"/>
<path d="M23.8027 20.181L22.7198 19.3193L20.7478 21.9151L19.577 20.9567L18.7202 22.0517L20.9763 23.8992L23.8027 20.181Z" fill="#FFB001"/>
<path d="M28.7025 19.6387H25.062V23.3647H28.7025V19.6387Z" fill="#FFB001"/>
<path d="M23.0599 25.4131H19.4189V29.1391H23.0599V25.4131Z" fill="#FFB001"/>
<path d="M17.4178 13.8643H13.7769V17.5898H17.4178V13.8643Z" fill="#FFB001"/>
</svg>
