<svg width="50" height="43" viewBox="0 0 50 43" fill="none" xmlns="http://www.w3.org/2000/svg">
<g filter="url(#filter0_d_88_6015)">
<path d="M42.5 21C36.6577 31.5 35 32 24.4959 27.0004C13.5 27.0004 6 22.0233 6 16.5004C6 10.9776 11.5 -0.999702 24.4959 3.50022C46.5 2 45.0041 16.4996 42.5 21Z" fill="#FFDB1D"/>
<path d="M16.1064 12.0176C14.5763 12.0176 13.3816 13.3212 13.3816 14.8711C13.3816 16.4208 14.5761 17.7253 16.1064 17.7253C17.6374 17.7253 18.8287 16.42 18.8287 14.8711C18.8287 13.322 17.6373 12.0176 16.1064 12.0176Z" fill="#FFB001" stroke="white"/>
<path d="M24.9994 12.0176C23.469 12.0176 22.2758 13.3216 22.2758 14.8711C22.2758 16.4204 23.4687 17.7253 24.9994 17.7253C26.53 17.7253 27.723 16.4204 27.723 14.8711C27.723 13.3216 26.5298 12.0176 24.9994 12.0176Z" fill="#FFB001" stroke="white"/>
<path d="M33.8923 12.0176C32.362 12.0176 31.1688 13.3216 31.1688 14.8711C31.1688 16.4204 32.3617 17.7253 33.8923 17.7253C35.4244 17.7253 36.6159 16.4202 36.6159 14.8711C36.6159 13.3218 35.4242 12.0176 33.8923 12.0176Z" fill="#FFB001" stroke="white"/>
<path d="M45.4975 14.6243L45.4975 14.6237C45.4609 10.8564 44.0664 7.31372 41.5629 4.65402C39.0494 1.97976 35.6922 0.5 32.1084 0.5H17.8891H17.889C10.48 0.501466 4.50129 6.87149 4.5 14.6405V14.6407C4.50129 22.4103 10.4799 28.7817 17.8889 28.7838H17.8891H29.4991L29.499 28.7844C29.4437 28.9923 29.2883 29.3296 28.9194 29.9641L28.9179 29.9669C28.6383 30.4548 28.381 30.8658 28.3277 30.9494L28.3261 30.9519C28.1098 31.2953 27.9499 31.6346 27.8679 31.9546C27.7872 32.2699 27.771 32.6121 27.9054 32.9209L27.906 32.9224C28.1235 33.4179 28.6234 33.6228 29.1305 33.6862L29.1315 33.6864C29.3016 33.7073 29.527 33.7202 29.7396 33.7202C29.8506 33.7202 29.9651 33.7165 30.0686 33.7078L30.0715 33.7075C30.9962 33.6237 32.2618 33.4669 33.7432 32.9961L33.7433 32.996C35.8903 32.3128 38.9806 30.8611 41.4651 27.8241C44.128 24.5783 45.5065 20.1086 45.5001 14.9315L45.5001 14.9279L45.4975 14.6243ZM34.8316 28.8138C34.1755 29.1454 33.4826 29.427 32.7649 29.6541C32.8546 29.3567 32.9454 28.9968 32.9508 28.5404L32.9509 28.5404V28.5345C32.9509 28.1102 32.8627 27.6811 32.6922 27.2916C32.4182 26.6558 31.8995 26.1102 31.2715 25.7794C30.639 25.4443 29.9128 25.2925 29.0777 25.2925H17.8891C15.2204 25.2925 12.705 24.1927 10.8037 22.1831C8.90406 20.171 7.85367 17.4941 7.85367 14.6406C7.85367 11.7893 8.90392 9.11298 10.8036 7.09959C12.7048 5.09051 15.2204 3.99061 17.8891 3.99061H32.1083C32.1084 3.99061 32.1084 3.99061 32.1084 3.99061C34.7692 3.99128 37.2756 5.09021 39.168 7.09747C41.0554 9.10556 42.1156 11.7884 42.1451 14.6566C42.1451 14.6572 42.1451 14.6577 42.1451 14.6583L42.1463 14.9319C42.1463 14.9324 42.1463 14.9329 42.1463 14.9334C42.1449 18.0427 41.6037 20.7331 40.5571 22.9435C39.3277 25.5342 37.4052 27.5056 34.8316 28.8138Z" fill="#FFB001" stroke="white"/>
</g>
<defs>
<filter id="filter0_d_88_6015" x="0" y="0" width="50.0001" height="42.2202" filterUnits="userSpaceOnUse" color-interpolation-filters="sRGB">
<feFlood flood-opacity="0" result="BackgroundImageFix"/>
<feColorMatrix in="SourceAlpha" type="matrix" values="0 0 0 0 0 0 0 0 0 0 0 0 0 0 0 0 0 0 127 0" result="hardAlpha"/>
<feOffset dy="4"/>
<feGaussianBlur stdDeviation="2"/>
<feComposite in2="hardAlpha" operator="out"/>
<feColorMatrix type="matrix" values="0 0 0 0 0 0 0 0 0 0 0 0 0 0 0 0 0 0 0.25 0"/>
<feBlend mode="normal" in2="BackgroundImageFix" result="effect1_dropShadow_88_6015"/>
<feBlend mode="normal" in="SourceGraphic" in2="effect1_dropShadow_88_6015" result="shape"/>
</filter>
</defs>
</svg>
