<svg width="58" height="58" viewBox="0 0 58 58" fill="none" xmlns="http://www.w3.org/2000/svg">
<g filter="url(#filter0_d_69_698)">
<path d="M15 6L27.5 1.5L41.5 6L48 15.5L49 27L48 48H10V26V15.5L15 6Z" fill="#FFFCF3"/>
<g opacity="0.7" clip-path="url(#clip0_69_698)">
<path d="M43.7214 6.09805C39.9595 2.33301 34.7449 -0.00146415 29 6.8897e-07C23.2552 -0.00146415 18.0407 2.33301 14.2788 6.09805C10.5137 9.86074 8.17993 15.0754 8.17993 20.8193V50H49.8202V48.3611V20.8193C49.8202 15.0754 47.4864 9.86074 43.7214 6.09805ZM46.5409 46.7207H11.4591V20.8193C11.4591 15.971 13.4206 11.5961 16.5971 8.4165C19.7768 5.23984 24.1517 3.28008 29 3.27852C33.8485 3.28008 38.2233 5.23994 41.403 8.4166C44.5811 11.5962 46.541 15.9711 46.541 20.8194L46.5409 46.7207Z" fill="#573F1B"/>
<path d="M20.3944 24.5903C19.0612 24.5896 17.8461 25.1335 16.9741 26.007C16.1007 26.8781 15.5566 28.0948 15.5566 29.4265C15.5566 30.758 16.1007 31.9739 16.9741 32.8458C17.846 33.7192 19.0611 34.2625 20.3944 34.2625C21.7245 34.2625 22.9412 33.7192 23.8131 32.8458C24.6865 31.9739 25.2305 30.758 25.229 29.4265C25.2306 28.0948 24.6866 26.8781 23.8131 26.007C22.9412 25.1335 21.7245 24.5896 20.3944 24.5903ZM22.1903 31.2223C21.726 31.6843 21.0993 31.9663 20.3944 31.967C19.688 31.9663 19.0597 31.6843 18.5969 31.2223C18.1357 30.7596 17.8537 30.132 17.8521 29.4264C17.8537 28.7207 18.1357 28.0932 18.5969 27.6297C19.0597 27.1677 19.688 26.8857 20.3944 26.885C21.0993 26.8857 21.726 27.1677 22.1903 27.6297C22.6516 28.0932 22.9335 28.7207 22.9351 29.4264C22.9335 30.132 22.6516 30.7596 22.1903 31.2223Z" fill="#573F1B"/>
</g>
</g>
<defs>
<filter id="filter0_d_69_698" x="0" y="0" width="58" height="58" filterUnits="userSpaceOnUse" color-interpolation-filters="sRGB">
<feFlood flood-opacity="0" result="BackgroundImageFix"/>
<feColorMatrix in="SourceAlpha" type="matrix" values="0 0 0 0 0 0 0 0 0 0 0 0 0 0 0 0 0 0 127 0" result="hardAlpha"/>
<feOffset dy="4"/>
<feGaussianBlur stdDeviation="2"/>
<feComposite in2="hardAlpha" operator="out"/>
<feColorMatrix type="matrix" values="0 0 0 0 0 0 0 0 0 0 0 0 0 0 0 0 0 0 0.25 0"/>
<feBlend mode="normal" in2="BackgroundImageFix" result="effect1_dropShadow_69_698"/>
<feBlend mode="normal" in="SourceGraphic" in2="effect1_dropShadow_69_698" result="shape"/>
</filter>
<clipPath id="clip0_69_698">
<rect width="50" height="50" fill="white" transform="translate(4)"/>
</clipPath>
</defs>
</svg>
