<svg width="40" height="40" viewBox="0 0 40 40" fill="none" xmlns="http://www.w3.org/2000/svg">
<g id="&#233;&#163;&#159;&#228;&#186;&#139;&#227;&#130;&#162;&#227;&#130;&#164;&#227;&#130;&#179;&#227;&#131;&#179; 1" opacity="0.7" clip-path="url(#clip0_69_723)">
<g id="Group">
<path id="Vector" d="M7.10438 4.48833C6.26524 4.90435 5.56977 5.57958 5.08336 6.41036C4.59688 7.24122 4.31782 8.23083 4.3175 9.28802C4.3175 9.68927 4.64321 10.0152 5.04516 10.0152C5.44672 10.0152 5.77211 9.68919 5.77211 9.28802C5.77211 8.48872 5.98399 7.75114 6.3386 7.14536C6.69329 6.53958 7.18907 6.06958 7.74977 5.79177C8.10954 5.61364 8.25711 5.177 8.07899 4.81755C7.90047 4.45685 7.46415 4.31021 7.10438 4.48833Z" fill="#573F1B"/>
<path id="Vector_2" d="M12.9277 0.760703C11.8831 0.272031 10.7272 0 9.51802 0C8.30911 0 7.15325 0.272031 6.10833 0.760703C4.54036 1.49375 3.22106 2.71039 2.29388 4.22664C1.36661 5.74422 0.829346 7.56594 0.829346 9.5182C0.829346 11.6241 1.45435 13.5777 2.51989 15.1615C3.47513 16.5806 4.78786 17.7054 6.32505 18.3709V23.5814H6.23247C5.79521 23.5814 5.44083 23.9357 5.44083 24.373V35.0383V35.0415C5.44083 37.2934 7.26646 39.1184 9.51802 39.1184C11.7697 39.1184 13.5952 37.2934 13.5952 35.0415V24.3729C13.5952 23.9357 13.2409 23.5813 12.804 23.5813H12.711V18.3708C14.2482 17.7053 15.5613 16.5805 16.5162 15.1614C17.5817 13.5776 18.2067 11.6241 18.2067 9.51813C18.2064 6.91445 17.2525 4.54484 15.6899 2.81703C14.9083 1.95352 13.9729 1.24938 12.9277 0.760703ZM9.51802 35.5418C8.92286 35.5418 8.4406 35.0595 8.4406 34.4648C8.4406 33.8693 8.92286 33.387 9.51802 33.387C10.1132 33.387 10.5954 33.8693 10.5954 34.4648C10.5954 35.0595 10.1132 35.5418 9.51802 35.5418ZM9.51802 27.9996C8.92286 27.9996 8.4406 27.5167 8.4406 26.9219C8.4406 26.3264 8.92286 25.8441 9.51802 25.8441C10.1132 25.8441 10.5954 26.3264 10.5954 26.9219C10.5954 27.5167 10.1132 27.9996 9.51802 27.9996ZM15.1751 14.2593C14.2893 15.5755 13.0511 16.5626 11.6355 17.0591L11.0947 17.2481V23.5814H7.9413V17.2481L7.40052 17.0591C5.98489 16.5627 4.74669 15.5756 3.86091 14.2593C2.97513 12.943 2.4456 11.3039 2.4456 9.5182C2.44528 7.31125 3.25552 5.32625 4.54481 3.90125C5.1895 3.18875 5.95239 2.61781 6.79286 2.22484C7.63364 1.83195 8.55091 1.61656 9.51802 1.61586C10.4852 1.61648 11.4024 1.83195 12.2432 2.22484C13.5036 2.8132 14.5908 3.80609 15.3632 5.06961C16.1354 6.33313 16.5904 7.86297 16.5904 9.51813C16.5904 11.3039 16.0609 12.943 15.1751 14.2593Z" fill="#573F1B"/>
<path id="Vector_3" d="M38.332 1.3533C37.8163 0.836349 37.0948 0.513614 36.3059 0.514161C35.5168 0.513536 34.7953 0.836349 34.2796 1.3533C33.7626 1.86971 33.4398 2.59057 33.4411 3.37955V11.9017C33.4398 12.2393 33.3723 12.5061 33.2668 12.7306C33.1877 12.8985 33.0848 13.0438 32.9652 13.1704C32.8457 13.2978 32.7055 13.4032 32.5588 13.4894V3.37955C32.5595 2.59057 32.2373 1.86971 31.7204 1.3533C31.204 0.836349 30.4825 0.513614 29.6938 0.514161C28.9055 0.513536 28.184 0.836349 27.668 1.3533C27.1506 1.86971 26.8284 2.59057 26.8288 3.37955V13.4906C26.6343 13.3761 26.4516 13.2238 26.3089 13.0373C26.2012 12.8978 26.1128 12.7389 26.0495 12.5537C25.9861 12.3685 25.9472 12.155 25.9472 11.9017V3.37955C25.9475 2.59057 25.6253 1.86971 25.108 1.3533C24.592 0.836349 23.8705 0.513614 23.0821 0.514161C22.2934 0.513536 21.572 0.836349 21.0559 1.3533C20.5389 1.86971 20.2164 2.59057 20.2168 3.37955V12.391C20.2165 13.4938 20.4235 14.4854 20.7894 15.3522C21.0636 16.0023 21.4253 16.5817 21.8459 17.091C22.4773 17.8556 23.2387 18.462 24.0445 18.9385C24.7926 19.3802 25.5797 19.7101 26.3513 19.9519V24.4685C25.9414 24.4981 25.617 24.8363 25.617 25.2537V35.9198L25.6166 35.9229C25.6166 38.1749 27.4422 39.9998 29.6938 39.9998C31.9454 39.9998 33.7709 38.1749 33.7709 35.9229V25.2537C33.7709 24.8363 33.4462 24.4981 33.0359 24.4685V19.9525C33.7156 19.7391 34.4069 19.4581 35.0731 19.0922C36.1592 18.4954 37.1841 17.6717 37.9411 16.5586C38.3205 16.0024 38.6291 15.3749 38.8413 14.6791C39.0548 13.9826 39.1705 13.2188 39.1705 12.3911V3.37955C39.1719 2.59057 38.8491 1.86971 38.332 1.3533ZM29.6938 36.4232C29.0987 36.4232 28.6164 35.941 28.6164 35.3455C28.6164 34.7507 29.0987 34.2685 29.6938 34.2685C30.289 34.2685 30.7712 34.7507 30.7712 35.3455C30.7712 35.9409 30.289 36.4232 29.6938 36.4232ZM29.6938 28.8804C29.0987 28.8804 28.6164 28.3981 28.6164 27.8034C28.6164 27.2079 29.0987 26.7256 29.6938 26.7256C30.289 26.7256 30.7712 27.2079 30.7712 27.8034C30.7712 28.3981 30.289 28.8804 29.6938 28.8804ZM37.5546 12.391C37.554 13.2938 37.3888 14.0597 37.109 14.7246C36.8987 15.2223 36.6228 15.6647 36.2955 16.0621C35.8049 16.657 35.1941 17.1495 34.5214 17.5469C33.8488 17.9443 33.1164 18.2446 32.3968 18.4581C32.393 18.4594 32.3788 18.4632 32.3602 18.4684C32.3222 18.4793 32.2682 18.4954 32.2039 18.5185C32.155 18.5365 32.0998 18.5578 32.0386 18.5874C31.9466 18.6336 31.8373 18.6909 31.7087 18.8163C31.6445 18.8799 31.575 18.9635 31.5178 19.078C31.4606 19.1924 31.4195 19.341 31.4207 19.4928C31.4207 19.7134 31.4207 19.8349 31.4207 19.8349V24.4628H27.9677V19.8349C27.9677 19.8349 27.9677 19.7134 27.9677 19.4928C27.9686 19.3333 27.9233 19.1784 27.8615 19.062C27.8075 18.9591 27.7448 18.8825 27.6859 18.8228C27.5821 18.7192 27.4898 18.6633 27.4105 18.6189C27.2915 18.5546 27.1947 18.5212 27.1185 18.4961C27.0802 18.4839 27.0478 18.4742 27.0234 18.4672L26.9948 18.4596L26.9909 18.4582C26.3514 18.2692 25.7013 18.01 25.093 17.6756C24.1789 17.1735 23.3642 16.506 22.7826 15.6495C22.4913 15.2212 22.2559 14.7441 22.0913 14.2065C21.9273 13.6683 21.8334 13.0684 21.8331 12.3912V3.37955C21.8337 3.03166 21.9716 2.72494 22.199 2.49666C22.4276 2.269 22.7346 2.13143 23.0822 2.13072C23.4298 2.13135 23.7369 2.269 23.9652 2.49666C24.1925 2.72494 24.3307 3.03166 24.331 3.37955V11.9017C24.3304 12.4644 24.4509 12.9795 24.6593 13.4199C24.8152 13.7511 25.019 14.0392 25.2492 14.2822C25.5955 14.6468 25.999 14.9111 26.4102 15.0873C26.8224 15.2635 27.2423 15.3548 27.6516 15.356H28.5297L28.457 14.4809C28.4487 14.3825 28.4448 14.2996 28.4452 14.2519V3.37955C28.4455 3.03166 28.5837 2.72494 28.8106 2.49666C29.0392 2.269 29.3463 2.13143 29.6938 2.13072C30.0414 2.13135 30.3484 2.269 30.5771 2.49666C30.8045 2.72494 30.9423 3.03166 30.943 3.37955V14.252C30.943 14.2996 30.9391 14.3826 30.9308 14.481L30.8588 15.3561H31.7359C32.1005 15.3548 32.4721 15.2822 32.8406 15.1432C33.3897 14.9342 33.937 14.5703 34.3595 14.0237C34.5697 13.7511 34.7459 13.4334 34.8681 13.0759C34.9903 12.719 35.0572 12.3235 35.0572 11.9017V3.37955C35.0578 3.03166 35.1954 2.72494 35.423 2.49666C35.6513 2.269 35.958 2.13143 36.306 2.13072C36.6539 2.13135 36.9606 2.269 37.1889 2.49666C37.4166 2.72494 37.5541 3.03166 37.5548 3.37955V12.391H37.5546Z" fill="#573F1B"/>
</g>
</g>
<defs>
<clipPath id="clip0_69_723">
<rect width="40" height="40" fill="white"/>
</clipPath>
</defs>
</svg>
