<svg width="50" height="50" viewBox="0 0 50 50" fill="none" xmlns="http://www.w3.org/2000/svg">
<path d="M35.9161 3.67725C31.7139 3.67725 27.7222 5.54492 25 8.51123C22.2778 5.54492 18.2861 3.67725 14.0839 3.67725C6.31719 3.67725 0 10.0737 0 17.9351C0 23.2313 1.99893 36.4439 20.5078 44.7615C21.5729 45.2422 23.6054 46.0417 23.6648 46.0646C24.0905 46.2371 24.5392 46.3226 25 46.3226C25.4608 46.3226 25.9095 46.2371 26.3352 46.0646C26.3946 46.0418 28.4271 45.2422 29.4922 44.7615C48.0011 36.4439 50 23.2313 50 17.9351C50 10.0737 43.6829 3.67725 35.9161 3.67725ZM26.8921 38.9754C26.4236 39.1875 25.6546 39.5049 25 39.7673C24.3454 39.5048 23.5764 39.1874 23.1079 38.9754C7.97734 32.1776 6.34463 21.997 6.34463 17.9351C6.34463 13.571 9.81602 10.0203 14.0839 10.0203C17.6331 10.0203 21.1914 13.3391 22.9446 16.1711C23.7335 17.4452 24.2004 18.2845 25 18.2859C25.7996 18.2844 26.2665 17.4452 27.0554 16.1711C28.8086 13.3391 32.367 10.0203 35.9161 10.0203C40.184 10.0203 43.6554 13.571 43.6554 17.9351C43.6554 21.997 42.0228 32.1776 26.8921 38.9754Z" fill="#FF8E8E"/>
<g clip-path="url(#clip0_545_725)">
<path d="M36.4285 6C30.1171 6 25 11.4889 25 14.1335C25 11.4889 19.8827 6 13.5714 6C7.26005 6 2.14282 11.197 2.14282 17.6082C2.14282 23.6369 4.93863 35.1447 21.6574 42.6568C22.7149 43.1328 24.8451 43.9688 24.8451 43.9688C24.894 43.9887 24.947 44 25 44C25.0529 44 25.106 43.9887 25.1548 43.9688C25.1548 43.9688 27.2851 43.1328 28.3426 42.6568C45.0614 35.1447 47.8571 23.637 47.8571 17.6082C47.8571 11.197 42.74 6 36.4285 6Z" fill="white"/>
<rect width="4.44782" height="5.00714" rx="2.22391" transform="matrix(0.524944 0.851137 -0.892222 0.451598 7.71191 14.3643)" fill="white"/>
</g>
<g clip-path="url(#clip1_545_725)">
<path d="M35 9.43115C29.4775 9.43115 25 17.1461 25 19.3335C25 17.1461 20.5224 9.43115 15 9.43115C9.47758 9.43115 5 13.7298 5 19.0327C5 24.0192 7.44633 33.5377 22.0752 39.7512C23.0005 40.145 24.8645 40.8365 24.8645 40.8365C24.9073 40.8529 24.9537 40.8623 25 40.8623C25.0463 40.8623 25.0928 40.8529 25.1355 40.8365C25.1355 40.8365 26.9995 40.145 27.9248 39.7512C42.5538 33.5377 45 24.0193 45 19.0327C45 13.7298 40.5225 9.43115 35 9.43115Z" fill="#DDDDDD"/>
<mask id="mask0_545_725" style="mask-type:alpha" maskUnits="userSpaceOnUse" x="5" y="9" width="40" height="32">
<path d="M35 9.43115C29.4775 9.43115 25 17.1461 25 19.3335C25 17.1461 20.5224 9.43115 15 9.43115C9.47758 9.43115 5 13.7298 5 19.0327C5 24.0192 7.44633 33.5377 22.0752 39.7512C23.0005 40.145 24.8645 40.8365 24.8645 40.8365C24.9073 40.8529 24.9537 40.8623 25 40.8623C25.0463 40.8623 25.0928 40.8529 25.1355 40.8365C25.1355 40.8365 26.9995 40.145 27.9248 39.7512C42.5538 33.5377 45 24.0193 45 19.0327C45 13.7298 40.5225 9.43115 35 9.43115Z" fill="#DDDDDD"/>
</mask>
<g mask="url(#mask0_545_725)">
<path d="M25.4214 44L9.28568 36L3.57139 22L47.1428 22L39.1224 37.2249L25.4214 44Z" fill="#FF8E8E"/>
</g>
<ellipse cx="38.5714" cy="17.3335" rx="2.14286" ry="2" fill="white"/>
</g>
<defs>
<clipPath id="clip0_545_725">
<rect width="45.7143" height="41.9118" fill="white" transform="translate(2.14282 5.88232)"/>
</clipPath>
<clipPath id="clip1_545_725">
<rect width="40" height="34.6667" fill="white" transform="translate(5 9.3335)"/>
</clipPath>
</defs>
</svg>
