<svg width="32" height="32" viewBox="0 0 32 32" fill="none" xmlns="http://www.w3.org/2000/svg">
<path d="M10.6667 12.2502C11.0866 12.2502 11.4893 12.0833 11.7863 11.7864C12.0832 11.4895 12.25 11.0868 12.25 10.6668C12.25 10.2469 12.0832 9.84418 11.7863 9.54724C11.4893 9.25031 11.0866 9.0835 10.6667 9.0835C10.2467 9.0835 9.84402 9.25031 9.54708 9.54724C9.25015 9.84418 9.08334 10.2469 9.08334 10.6668C9.08334 11.0868 9.25015 11.4895 9.54708 11.7864C9.84402 12.0833 10.2467 12.2502 10.6667 12.2502ZM12 19.7502C11.5801 19.7502 11.1773 19.917 10.8804 20.2139C10.5835 20.5108 10.4167 20.9136 10.4167 21.3335C10.4167 21.7534 10.5835 22.1561 10.8804 22.4531C11.1773 22.75 11.5801 22.9168 12 22.9168H20C20.4199 22.9168 20.8227 22.75 21.1196 22.4531C21.4165 22.1561 21.5833 21.7534 21.5833 21.3335C21.5833 20.9136 21.4165 20.5108 21.1196 20.2139C20.8227 19.917 20.4199 19.7502 20 19.7502H12ZM11.7863 17.1197C12.0832 16.8228 12.25 16.4201 12.25 16.0002C12.25 15.5802 12.0832 15.1775 11.7863 14.8806C11.4893 14.5836 11.0866 14.4168 10.6667 14.4168C10.2467 14.4168 9.84402 14.5836 9.54708 14.8806C9.25015 15.1775 9.08334 15.5802 9.08334 16.0002C9.08334 16.4201 9.25015 16.8228 9.54708 17.1197C9.84402 17.4167 10.2467 17.5835 10.6667 17.5835C11.0866 17.5835 11.4893 17.4167 11.7863 17.1197ZM16 12.2502C16.4199 12.2502 16.8227 12.0833 17.1196 11.7864C17.4165 11.4895 17.5833 11.0868 17.5833 10.6668C17.5833 10.2469 17.4165 9.84418 17.1196 9.54724C16.8227 9.25031 16.4199 9.0835 16 9.0835C15.5801 9.0835 15.1773 9.25031 14.8804 9.54724C14.5835 9.84418 14.4167 10.2469 14.4167 10.6668C14.4167 11.0868 14.5835 11.4895 14.8804 11.7864C15.1773 12.0833 15.5801 12.2502 16 12.2502ZM17.1196 17.1197C17.4165 16.8228 17.5833 16.4201 17.5833 16.0002C17.5833 15.5802 17.4165 15.1775 17.1196 14.8806C16.8227 14.5836 16.4199 14.4168 16 14.4168C15.5801 14.4168 15.1773 14.5836 14.8804 14.8806C14.5835 15.1775 14.4167 15.5802 14.4167 16.0002C14.4167 16.4201 14.5835 16.8228 14.8804 17.1197C15.1773 17.4167 15.5801 17.5835 16 17.5835C16.4199 17.5835 16.8227 17.4167 17.1196 17.1197ZM21.3333 12.2502C21.7533 12.2502 22.156 12.0833 22.4529 11.7864C22.7499 11.4895 22.9167 11.0868 22.9167 10.6668C22.9167 10.2469 22.7499 9.84418 22.4529 9.54724C22.156 9.25031 21.7533 9.0835 21.3333 9.0835C20.9134 9.0835 20.5107 9.25031 20.2137 9.54724C19.9168 9.84418 19.75 10.2469 19.75 10.6668C19.75 11.0868 19.9168 11.4895 20.2137 11.7864C20.5107 12.0833 20.9134 12.2502 21.3333 12.2502ZM22.4529 17.1197C22.7499 16.8228 22.9167 16.4201 22.9167 16.0002C22.9167 15.5802 22.7499 15.1775 22.4529 14.8806C22.156 14.5836 21.7533 14.4168 21.3333 14.4168C20.9134 14.4168 20.5107 14.5836 20.2137 14.8806C19.9168 15.1775 19.75 15.5802 19.75 16.0002C19.75 16.4201 19.9168 16.8228 20.2137 17.1197C20.5107 17.4167 20.9134 17.5835 21.3333 17.5835C21.7533 17.5835 22.156 17.4167 22.4529 17.1197Z" fill="#FFB001" stroke="white" stroke-width="0.5"/>
<path d="M24.5893 7.41074L24.9428 7.05719L24.5893 7.41075C24.7455 7.56702 24.8333 7.77899 24.8333 8V24C24.8333 24.221 24.7455 24.433 24.5893 24.5893L24.9428 24.9428L24.5893 24.5893C24.433 24.7455 24.221 24.8333 24 24.8333H8C7.77899 24.8333 7.56702 24.7455 7.41075 24.5893L7.05719 24.9428L7.41074 24.5893C7.25446 24.433 7.16667 24.221 7.16667 24V8C7.16667 7.77899 7.25446 7.56703 7.41074 7.41074C7.56703 7.25446 7.77899 7.16667 8 7.16667H24C24.221 7.16667 24.433 7.25446 24.5893 7.41074ZM4.81802 4.81802C3.97411 5.66193 3.5 6.80653 3.5 8V24C3.5 25.1935 3.97411 26.3381 4.81802 27.182C5.66193 28.0259 6.80653 28.5 8 28.5H24C25.1935 28.5 26.3381 28.0259 27.182 27.182C28.0259 26.3381 28.5 25.1935 28.5 24V8C28.5 6.80653 28.0259 5.66193 27.182 4.81802C26.3381 3.97411 25.1935 3.5 24 3.5H8C6.80653 3.5 5.66193 3.97411 4.81802 4.81802Z" fill="#FFB001" stroke="white"/>
</svg>
