<svg width="32" height="32" viewBox="0 0 32 32" fill="none" xmlns="http://www.w3.org/2000/svg">
<g id="Group 94">
<ellipse id="Ellipse 42" cx="15.5" cy="16" rx="13.5" ry="14" fill="#FFDB1D"/>
<g id="Group">
<path id="Vector" d="M16 5.25C21.9275 5.25 26.75 10.0725 26.75 16C26.75 21.9275 21.9275 26.75 16 26.75C10.0734 26.75 5.25 21.9274 5.25 16C5.25 10.0726 10.0734 5.25 16 5.25ZM16 0.5C7.44017 0.5 0.5 7.44017 0.5 16C0.5 24.5608 7.44019 31.5 16 31.5C24.5598 31.5 31.5 24.5608 31.5 16C31.5 7.44017 24.5598 0.5 16 0.5Z" fill="#FFB001" stroke="white"/>
<path id="Vector_2" d="M16.4907 10.4956H13.2974C12.5123 10.4956 11.8745 11.1305 11.8745 11.9166V21.3319C11.8745 22.1181 12.5123 22.7529 13.2974 22.7529H13.7606C14.5452 22.7529 15.1825 22.1177 15.1825 21.3319V19.1805H16.4907C19.1206 19.1805 21.3761 17.2937 21.3761 14.8371C21.3761 12.3823 19.1205 10.4956 16.4907 10.4956ZM16.4907 16.1572H15.1826V13.5171H16.4907C17.4237 13.5171 18.0672 14.1697 18.0672 14.8372C18.0672 15.5047 17.4238 16.1572 16.4907 16.1572Z" fill="#FFB001" stroke="white"/>
</g>
</g>
</svg>
