<svg width="40" height="40" viewBox="0 0 40 40" fill="none" xmlns="http://www.w3.org/2000/svg">
<g opacity="0.7" clip-path="url(#clip0_991_3303)">
<path d="M7.10438 4.48882C6.26524 4.90483 5.56977 5.58007 5.08336 6.41085C4.59688 7.24171 4.31782 8.23132 4.3175 9.28851C4.3175 9.68976 4.64321 10.0157 5.04516 10.0157C5.44672 10.0157 5.77211 9.68968 5.77211 9.28851C5.77211 8.48921 5.98399 7.75163 6.3386 7.14585C6.69329 6.54007 7.18907 6.07007 7.74977 5.79226C8.10954 5.61413 8.25711 5.17749 8.07899 4.81804C7.90047 4.45733 7.46415 4.31069 7.10438 4.48882Z" fill="#573F1B"/>
<path d="M12.9277 0.760703C11.8831 0.272031 10.7272 0 9.51802 0C8.30911 0 7.15325 0.272031 6.10833 0.760703C4.54036 1.49375 3.22106 2.71039 2.29388 4.22664C1.36661 5.74422 0.829346 7.56594 0.829346 9.5182C0.829346 11.6241 1.45435 13.5777 2.51989 15.1615C3.47513 16.5806 4.78786 17.7054 6.32505 18.3709V23.5814H6.23247C5.79521 23.5814 5.44083 23.9357 5.44083 24.373V35.0383V35.0415C5.44083 37.2934 7.26646 39.1184 9.51802 39.1184C11.7697 39.1184 13.5952 37.2934 13.5952 35.0415V24.3729C13.5952 23.9357 13.2409 23.5813 12.804 23.5813H12.711V18.3708C14.2482 17.7053 15.5613 16.5805 16.5162 15.1614C17.5817 13.5776 18.2067 11.6241 18.2067 9.51813C18.2064 6.91445 17.2525 4.54484 15.6899 2.81703C14.9083 1.95352 13.9729 1.24938 12.9277 0.760703ZM9.51802 35.5418C8.92286 35.5418 8.4406 35.0595 8.4406 34.4648C8.4406 33.8693 8.92286 33.387 9.51802 33.387C10.1132 33.387 10.5954 33.8693 10.5954 34.4648C10.5954 35.0595 10.1132 35.5418 9.51802 35.5418ZM9.51802 27.9996C8.92286 27.9996 8.4406 27.5167 8.4406 26.9219C8.4406 26.3264 8.92286 25.8441 9.51802 25.8441C10.1132 25.8441 10.5954 26.3264 10.5954 26.9219C10.5954 27.5167 10.1132 27.9996 9.51802 27.9996ZM15.1751 14.2593C14.2893 15.5755 13.0511 16.5626 11.6355 17.0591L11.0947 17.2481V23.5814H7.9413V17.2481L7.40052 17.0591C5.98489 16.5627 4.74669 15.5756 3.86091 14.2593C2.97513 12.943 2.4456 11.3039 2.4456 9.5182C2.44528 7.31125 3.25552 5.32625 4.54481 3.90125C5.1895 3.18875 5.95239 2.61781 6.79286 2.22484C7.63364 1.83195 8.55091 1.61656 9.51802 1.61586C10.4852 1.61648 11.4024 1.83195 12.2432 2.22484C13.5036 2.8132 14.5908 3.80609 15.3632 5.06961C16.1354 6.33313 16.5904 7.86297 16.5904 9.51813C16.5904 11.3039 16.0609 12.943 15.1751 14.2593Z" fill="#573F1B"/>
<path d="M38.332 1.35379C37.8163 0.836837 37.0948 0.514102 36.3059 0.514649C35.5168 0.514024 34.7953 0.836837 34.2796 1.35379C33.7626 1.8702 33.4398 2.59106 33.4411 3.38004V11.9022C33.4398 12.2398 33.3723 12.5066 33.2668 12.7311C33.1877 12.8989 33.0848 13.0443 32.9652 13.1709C32.8457 13.2982 32.7055 13.4037 32.5588 13.4899V3.38004C32.5595 2.59106 32.2373 1.8702 31.7204 1.35379C31.204 0.836837 30.4825 0.514102 29.6938 0.514649C28.9055 0.514024 28.184 0.836837 27.668 1.35379C27.1506 1.8702 26.8284 2.59106 26.8288 3.38004V13.4911C26.6343 13.3766 26.4516 13.2243 26.3089 13.0378C26.2012 12.8982 26.1128 12.7394 26.0495 12.5542C25.9861 12.369 25.9472 12.1555 25.9472 11.9021V3.38004C25.9475 2.59106 25.6253 1.8702 25.108 1.35379C24.592 0.836837 23.8705 0.514102 23.0821 0.514649C22.2934 0.514024 21.572 0.836837 21.0559 1.35379C20.5389 1.8702 20.2164 2.59106 20.2168 3.38004V12.3915C20.2165 13.4943 20.4235 14.4859 20.7894 15.3527C21.0636 16.0028 21.4253 16.5822 21.8459 17.0914C22.4773 17.8561 23.2387 18.4625 24.0445 18.9389C24.7926 19.3807 25.5797 19.7106 26.3513 19.9524V24.469C25.9414 24.4986 25.617 24.8368 25.617 25.2542V35.9203L25.6166 35.9234C25.6166 38.1754 27.4422 40.0003 29.6938 40.0003C31.9454 40.0003 33.7709 38.1754 33.7709 35.9234V25.2542C33.7709 24.8368 33.4462 24.4986 33.0359 24.469V19.953C33.7156 19.7396 34.4069 19.4586 35.0731 19.0927C36.1592 18.4959 37.1841 17.6722 37.9411 16.5591C38.3205 16.0029 38.6291 15.3754 38.8413 14.6796C39.0548 13.9831 39.1705 13.2193 39.1705 12.3916V3.38004C39.1719 2.59106 38.8491 1.8702 38.332 1.35379ZM29.6938 36.4237C29.0987 36.4237 28.6164 35.9414 28.6164 35.346C28.6164 34.7512 29.0987 34.2689 29.6938 34.2689C30.289 34.2689 30.7712 34.7512 30.7712 35.346C30.7712 35.9414 30.289 36.4237 29.6938 36.4237ZM29.6938 28.8809C29.0987 28.8809 28.6164 28.3986 28.6164 27.8039C28.6164 27.2084 29.0987 26.7261 29.6938 26.7261C30.289 26.7261 30.7712 27.2084 30.7712 27.8039C30.7712 28.3986 30.289 28.8809 29.6938 28.8809ZM37.5546 12.3915C37.554 13.2943 37.3888 14.0602 37.109 14.7251C36.8987 15.2228 36.6228 15.6652 36.2955 16.0626C35.8049 16.6575 35.1941 17.15 34.5214 17.5474C33.8488 17.9448 33.1164 18.2451 32.3968 18.4586C32.393 18.4599 32.3788 18.4637 32.3602 18.4689C32.3222 18.4798 32.2682 18.4959 32.2039 18.519C32.155 18.537 32.0998 18.5582 32.0386 18.5879C31.9466 18.6341 31.8373 18.6914 31.7087 18.8168C31.6445 18.8804 31.575 18.964 31.5178 19.0785C31.4606 19.1929 31.4195 19.3414 31.4207 19.4932C31.4207 19.7139 31.4207 19.8354 31.4207 19.8354V24.4632H27.9677V19.8354C27.9677 19.8354 27.9677 19.7139 27.9677 19.4932C27.9686 19.3338 27.9233 19.1789 27.8615 19.0625C27.8075 18.9596 27.7448 18.883 27.6859 18.8232C27.5821 18.7197 27.4898 18.6638 27.4105 18.6194C27.2915 18.5551 27.1947 18.5217 27.1185 18.4966C27.0802 18.4844 27.0478 18.4747 27.0234 18.4677L26.9948 18.46L26.9909 18.4587C26.3514 18.2696 25.7013 18.0105 25.093 17.6761C24.1789 17.1739 23.3642 16.5064 22.7826 15.65C22.4913 15.2217 22.2559 14.7446 22.0913 14.207C21.9273 13.6688 21.8334 13.0689 21.8331 12.3917V3.38004C21.8337 3.03215 21.9716 2.72543 22.199 2.49715C22.4276 2.26949 22.7346 2.13191 23.0822 2.13121C23.4298 2.13184 23.7369 2.26949 23.9652 2.49715C24.1925 2.72543 24.3307 3.03215 24.331 3.38004V11.9022C24.3304 12.4649 24.4509 12.98 24.6593 13.4204C24.8152 13.7516 25.019 14.0396 25.2492 14.2827C25.5955 14.6473 25.999 14.9116 26.4102 15.0878C26.8224 15.2639 27.2423 15.3553 27.6516 15.3565H28.5297L28.457 14.4814C28.4487 14.383 28.4448 14.3 28.4452 14.2524V3.38004C28.4455 3.03215 28.5837 2.72543 28.8106 2.49715C29.0392 2.26949 29.3463 2.13191 29.6938 2.13121C30.0414 2.13184 30.3484 2.26949 30.5771 2.49715C30.8045 2.72543 30.9423 3.03215 30.943 3.38004V14.2525C30.943 14.3001 30.9391 14.3831 30.9308 14.4814L30.8588 15.3566H31.7359C32.1005 15.3553 32.4721 15.2827 32.8406 15.1437C33.3897 14.9347 33.937 14.5707 34.3595 14.0242C34.5697 13.7516 34.7459 13.4339 34.8681 13.0764C34.9903 12.7195 35.0572 12.324 35.0572 11.9021V3.38004C35.0578 3.03215 35.1954 2.72543 35.423 2.49715C35.6513 2.26949 35.958 2.13191 36.306 2.13121C36.6539 2.13184 36.9606 2.26949 37.1889 2.49715C37.4166 2.72543 37.5541 3.03215 37.5548 3.38004V12.3915H37.5546Z" fill="#573F1B"/>
</g>
<defs>
<clipPath id="clip0_991_3303">
<rect width="40" height="40" fill="white"/>
</clipPath>
</defs>
</svg>
