<svg width="31" height="40" viewBox="0 0 31 40" fill="none" xmlns="http://www.w3.org/2000/svg">
<path d="M0 15.2839V25.044H12.943V13.9541H1.32906C0.593984 13.9541 0 14.55 0 15.2839Z" fill="#FF8E8E"/>
<path d="M29.1678 13.9541H17.554V25.0441H30.4969V15.2839C30.4969 14.55 29.9029 13.9541 29.1678 13.9541Z" fill="#FF8E8E"/>
<path d="M0 38.6704C0 39.4055 0.594063 39.9995 1.32906 39.9995H12.943V28.9102H0V38.6704Z" fill="#FF8E8E"/>
<path d="M17.554 40.0004H29.1678C29.9029 40.0004 30.4969 39.4064 30.4969 38.6713V28.9111H17.554V40.0004Z" fill="#FF8E8E"/>
<path d="M25.9273 8.87375C26.474 8.27414 26.9129 7.62281 27.2195 6.93391C27.5254 6.24563 27.6996 5.51734 27.6996 4.78102C27.7003 4.29164 27.6215 3.80039 27.4583 3.32875C27.276 2.80242 27.0114 2.32461 26.6839 1.91094C26.1932 1.28852 25.5646 0.809532 24.8696 0.487579C24.1746 0.166251 23.4112 1.10422e-06 22.6324 1.10422e-06C22.0617 1.10422e-06 21.4836 0.089923 20.921 0.275235C20.0763 0.552267 19.2661 1.04906 18.5835 1.7632C17.8995 2.47797 17.3454 3.40695 16.9816 4.52984C16.5063 5.99016 15.083 9.30344 15.0435 9.38469H14.9081C14.8681 9.30344 13.4454 5.99008 12.9702 4.52984C12.727 3.78063 12.4013 3.1182 12.0067 2.54875C11.4156 1.69367 10.6714 1.04781 9.86002 0.62547C9.04854 0.202032 8.17432 -0.000545771 7.31916 1.10422e-06C6.28182 0.000626104 5.26854 0.295548 4.41151 0.861876C3.9837 1.14445 3.59455 1.49664 3.26823 1.91094C2.9401 2.32461 2.67541 2.80235 2.49315 3.32875C2.3294 3.80094 2.25182 4.29219 2.25245 4.78102C2.25245 5.27109 2.3294 5.7593 2.47159 6.23328C2.72096 7.06313 3.16487 7.85055 3.75948 8.56961C4.65338 9.6482 5.88955 10.5772 7.39112 11.2439C8.89198 11.91 10.6614 12.312 12.6153 12.312C13.7222 12.3114 14.9331 12.3213 14.9756 12.312C15.0181 12.3213 16.2285 12.3114 17.3366 12.312C18.8246 12.312 20.2067 12.0794 21.4435 11.6736C23.2997 11.0641 24.8321 10.0711 25.9273 8.87375ZM19.8153 3.84094C20.2062 3.27641 20.6617 2.89227 21.1425 2.64109C21.6239 2.38992 22.1337 2.27359 22.6324 2.27234C23.2369 2.27234 23.8193 2.44719 24.286 2.7575C24.5211 2.91266 24.7274 3.10039 24.8997 3.31891C25.0721 3.53742 25.2112 3.7868 25.3103 4.0718C25.3878 4.29531 25.4254 4.52984 25.426 4.78039C25.426 5.03164 25.3867 5.29938 25.3023 5.58008C25.1557 6.07195 24.8695 6.6032 24.4404 7.12039C23.8002 7.89547 22.8441 8.63172 21.6386 9.16609C20.4321 9.70172 18.9785 10.0384 17.3366 10.0384C17.2486 10.0384 17.163 10.0372 17.0805 10.0347C17.6776 9.03367 18.3992 7.51797 19.1428 5.23156C19.324 4.6757 19.5542 4.21828 19.8153 3.84094ZM4.80987 6.0111C4.61479 5.57274 4.52549 5.15656 4.52549 4.78102C4.52549 4.52984 4.56362 4.29594 4.64119 4.07305L4.64174 4.0718C4.74026 3.7868 4.8794 3.5375 5.05237 3.31891C5.31034 2.99141 5.64643 2.73156 6.03612 2.55117C6.42518 2.37086 6.86604 2.27227 7.31909 2.27227C7.65151 2.27227 7.98893 2.32461 8.31948 2.43422C8.81573 2.59797 9.29526 2.88664 9.72565 3.33547C10.1547 3.7843 10.5377 4.39805 10.8091 5.23219C11.5521 7.51805 12.2743 9.03375 12.8714 10.0354C12.7884 10.0372 12.7034 10.0385 12.6153 10.0385C11.3644 10.0385 10.2224 9.84336 9.2158 9.51336C7.70627 9.01961 6.50213 8.21742 5.70237 7.34078C5.30174 6.9025 5.00323 6.4475 4.80987 6.0111Z" fill="#FF8E8E"/>
</svg>
