<svg width="40" height="40" viewBox="0 0 40 40" fill="none" xmlns="http://www.w3.org/2000/svg">
<g opacity="0.7">
<path d="M30.249 5.32188C29.9188 5.32188 29.5983 5.36281 29.292 5.43992V4.33125C29.292 2.17328 27.5364 0.417656 25.3784 0.417656C24.5743 0.417656 23.8265 0.661641 23.2039 1.07867C22.5013 0.410312 21.5522 0 20.5084 0C18.724 0 17.215 1.20039 16.7459 2.83609C16.3344 2.68867 15.8916 2.60859 15.43 2.60859C13.272 2.60859 11.5164 4.36422 11.5164 6.52219V13.0053C11.0479 12.8231 10.5392 12.7228 10.0072 12.7228C7.70795 12.7228 5.8374 14.5928 5.8374 16.892V24.6807C5.8374 29.6259 8.84717 39.1842 20.237 39.9658C20.5709 39.9884 20.9078 40 21.238 40C28.3644 40 34.1626 34.3455 34.1626 27.3945V9.23547C34.1626 7.0775 32.407 5.32188 30.249 5.32188ZM21.238 37.8084C20.9579 37.8084 20.6747 37.7985 20.3867 37.779C9.86647 37.0573 8.02896 27.883 8.02896 24.6806V16.892C8.02896 15.7998 8.91498 14.9144 10.0071 14.9144C11.0993 14.9144 11.9853 15.7998 11.9853 16.892V22.9073H13.7079V6.52227C13.7079 5.57133 14.479 4.80023 15.4299 4.80023C16.3808 4.80023 17.1519 5.57133 17.1519 6.52227V18.4722H18.7865V3.91359C18.7865 2.96266 19.5576 2.19164 20.5084 2.19164C21.4594 2.19164 22.2304 2.96273 22.2304 3.91359V18.4722H23.6565V4.33125C23.6565 3.38031 24.4276 2.6093 25.3785 2.6093C26.3294 2.6093 27.1004 3.38039 27.1004 4.33125V18.4722H28.5271V9.23547C28.5271 8.28453 29.2982 7.51344 30.249 7.51344C31.2 7.51344 31.9711 8.28453 31.9711 9.23547V27.3945C31.971 32.7928 27.6129 37.8084 21.238 37.8084Z" fill="#573F1B"/>
</g>
</svg>
