<svg width="42" height="42" viewBox="0 0 42 42" fill="none" xmlns="http://www.w3.org/2000/svg">
<g id="Group" filter="url(#filter0_d_399_4863)">
<circle id="Ellipse 55" cx="17" cy="13" r="10" fill="#FFDB1D"/>
<path id="Vector" d="M11.3354 7.32617L11.3354 7.32624C8.3656 10.2954 8.3655 15.1115 11.3354 18.0815C14.3053 21.0513 19.1214 21.0514 22.0913 18.0822C22.0914 18.0821 22.0914 18.0821 22.0914 18.082M11.3354 7.32617L22.7985 18.7892M11.3354 7.32617C14.3053 4.35628 19.1208 4.35628 22.0907 7.32617C25.0606 10.2961 25.0612 15.1115 22.0914 18.082M11.3354 7.32617L22.0914 18.082M22.0914 18.082L22.7985 18.7892M22.7985 18.7892C26.1589 15.4282 26.1582 9.97947 22.7978 6.61906C19.4374 3.25865 13.9887 3.25865 10.6283 6.61906C7.26791 9.97883 7.26791 15.4282 10.6283 18.7886C13.9887 22.149 19.4381 22.149 22.7985 18.7892ZM24.9924 4.42444C20.4265 -0.141477 13.0003 -0.141479 8.4344 4.42443L8.4344 4.42444C3.86842 8.99035 3.86842 16.4172 8.4344 20.9831C13.0003 25.5491 20.4265 25.5491 24.9924 20.9831C29.5583 16.4172 29.5583 8.99035 24.9924 4.42444Z" fill="#FFB001" stroke="white" stroke-width="2"/>
<path id="Vector_2" d="M13.4475 9.20143L13.6602 9.07003C13.5916 8.95895 13.4769 8.88251 13.3408 8.87473C13.2078 8.86714 13.089 8.92672 13.0056 9.0159L13.0054 9.01615C11.8432 10.2621 11.3428 12.2044 11.7101 13.8749M13.4475 9.20143L13.66 9.06964C13.726 9.17602 13.7417 9.29804 13.7286 9.40384C13.7154 9.51025 13.6706 9.62148 13.5881 9.70942C12.6704 10.6925 12.2641 12.2568 12.5574 13.5898L12.5574 13.5899C12.583 13.7061 12.5673 13.8239 12.5255 13.9231C12.4843 14.0211 12.4089 14.1206 12.2947 14.1778L12.293 14.1787L12.293 14.1787C12.1717 14.2384 12.0326 14.2361 11.9159 14.1684C11.8035 14.1031 11.7357 13.992 11.7101 13.8749M13.4475 9.20143C13.3876 9.10443 13.2714 9.09775 13.1882 9.18667C12.0843 10.3702 11.6038 12.2279 11.9544 13.8214M13.4475 9.20143C13.5078 9.29859 13.4892 9.44963 13.4056 9.53852C12.4293 10.5842 12.003 12.2335 12.3133 13.6435C12.3401 13.7658 12.2815 13.9048 12.1826 13.9544C12.0836 14.0031 11.9811 13.9441 11.9544 13.8214M11.7101 13.8749C11.7101 13.8748 11.7101 13.8747 11.7101 13.8746L11.9544 13.8214M11.7101 13.8749C11.7102 13.8749 11.7102 13.875 11.7102 13.8751L11.9544 13.8214" fill="white" stroke="white" stroke-width="0.5"/>
<path id="Vector_3" d="M25.2095 19.966L25.2089 19.9666L23.9765 21.199C23.1706 22.0048 23.161 23.31 23.9587 24.1269C23.959 24.1272 23.9592 24.1274 23.9595 24.1277L31.502 31.8714C32.0707 32.5423 32.8318 32.963 33.6799 32.9977C34.5407 33.0329 35.3512 32.665 35.9932 32.0227C36.6347 31.3823 37.0083 30.5687 36.9894 29.7083C36.9707 28.8545 36.5674 28.0728 35.8829 27.4917L28.1378 19.9473C28.1377 19.9472 28.1377 19.9472 28.1376 19.9471C27.3196 19.1501 26.0152 19.1615 25.2095 19.966Z" fill="#FFB001" stroke="white" stroke-width="2"/>
</g>
<defs>
<filter id="filter0_d_399_4863" x="0.00991821" y="0" width="41.9802" height="42" filterUnits="userSpaceOnUse" color-interpolation-filters="sRGB">
<feFlood flood-opacity="0" result="BackgroundImageFix"/>
<feColorMatrix in="SourceAlpha" type="matrix" values="0 0 0 0 0 0 0 0 0 0 0 0 0 0 0 0 0 0 127 0" result="hardAlpha"/>
<feOffset dy="4"/>
<feGaussianBlur stdDeviation="2"/>
<feComposite in2="hardAlpha" operator="out"/>
<feColorMatrix type="matrix" values="0 0 0 0 0 0 0 0 0 0 0 0 0 0 0 0 0 0 0.25 0"/>
<feBlend mode="normal" in2="BackgroundImageFix" result="effect1_dropShadow_399_4863"/>
<feBlend mode="normal" in="SourceGraphic" in2="effect1_dropShadow_399_4863" result="shape"/>
</filter>
</defs>
</svg>
