<svg width="40" height="40" viewBox="0 0 40 40" fill="none" xmlns="http://www.w3.org/2000/svg">
<g opacity="0.7">
<path d="M36.086 15.1001C36.3089 14.4812 36.4323 13.8256 36.4323 13.1494C36.4323 9.83148 33.6022 7.0507 29.7967 6.28656C28.749 2.68797 24.7629 0 20 0C15.237 0 11.2509 2.68797 10.1972 6.28664C6.39767 7.05078 3.56763 9.83156 3.56763 13.1495C3.56763 13.8257 3.69104 14.4812 3.91388 15.1002C1.53251 16.5991 0 18.9307 0 21.5625C0 26.0742 4.50696 29.7315 10.0738 29.7315C11.4828 29.7315 12.8256 29.4995 14.0419 29.0748C14.2271 29.1993 14.4122 29.3189 14.6049 29.4312V40H25.3952V29.4251C25.5879 29.3127 25.773 29.1992 25.9491 29.0748C27.1745 29.4996 28.5172 29.7315 29.9262 29.7315C35.4929 29.7315 40 26.0742 40 21.5625C39.9999 18.9307 38.4675 16.5991 36.086 15.1001ZM22.3122 37.5H17.6878V30.6128C18.4284 30.7691 19.1992 30.8496 20 30.8496C20.8007 30.8496 21.5716 30.7691 22.3122 30.6128V37.5ZM29.9261 27.2315C28.9718 27.2315 28.0475 27.0813 27.1684 26.7749L25.4192 26.1621L25.3951 26.1816L23.962 27.168C23.4607 27.5061 22.9052 27.7808 22.3122 27.9748C21.5805 28.219 20.8007 28.3496 20 28.3496C19.1992 28.3496 18.4194 28.219 17.6878 27.9748C17.0947 27.7808 16.5392 27.5061 16.0379 27.168L14.6048 26.1816L14.5807 26.1621L12.8316 26.7749C11.9524 27.0813 11.0281 27.2315 10.0738 27.2315C6.22011 27.2315 3.08293 24.6875 3.08293 21.5625C3.08293 19.7998 4.06889 18.1689 5.80304 17.0813L7.45135 16.0438L6.8733 14.4116C6.72879 13.9868 6.65047 13.562 6.65047 13.1495C6.65047 11.0438 8.41477 9.21875 10.9361 8.71828L12.7621 8.34961L13.2017 6.86281C13.9485 4.29445 16.7484 2.5 20 2.5C23.2515 2.5 26.0515 4.29445 26.7981 6.86281L27.2287 8.34961L29.0637 8.71828C31.5851 9.21875 33.3493 11.0438 33.3493 13.1495C33.3493 13.562 33.271 13.9869 33.1265 14.4116L32.5485 16.0438L34.1968 17.0813C35.9309 18.169 36.9169 19.7998 36.9169 21.5625C36.917 24.6875 33.7798 27.2315 29.9261 27.2315Z" fill="#573F1B"/>
</g>
</svg>
