<svg width="55" height="51" viewBox="0 0 55 51" fill="none" xmlns="http://www.w3.org/2000/svg">
<path d="M19.6655 23.2285L1 49.531" stroke="#8DD400" stroke-width="2.03165" stroke-miterlimit="10" stroke-linejoin="round"/>
<path d="M30.2731 29.6152L23.3865 35.0465L10.3328 45.3429" stroke="#8DD400" stroke-width="2.03165" stroke-miterlimit="10" stroke-linejoin="round"/>
<path opacity="0.624645" d="M26.6014 4.65142C35.7879 -0.956146 48.6177 3.33751 47.6794 8.24191C47.1255 11.1397 41.6287 10.4726 32.2535 12.8062C23.3835 15.014 22.8013 24.8706 19.6655 23.2284C16.529 21.5862 19.246 9.14166 26.6014 4.65142Z" fill="#FFF8D6" stroke="#FFF8D6" stroke-width="2.03165" stroke-miterlimit="10" stroke-linejoin="round"/>
<path opacity="0.624645" d="M35.316 19.7969C46.2901 18.2458 56.282 26.6915 51.9765 29.6155C51.9765 29.6155 49.5192 29.6155 40.394 29.6155C31.5763 29.6155 29.2967 35.25 27.0895 32.6955C24.883 30.1411 30.0454 20.5413 35.316 19.7969Z" fill="#FFF8D6" stroke="#FFF8D6" stroke-width="2.03165" stroke-miterlimit="10" stroke-linejoin="round"/>
<path d="M27.1664 5.68557C35.316 0.203824 46.2902 3.57282 45.3123 8.07159C44.7353 10.7296 40.6045 8.19347 32.4012 10.706C24.6397 13.0835 22.7303 24.0129 20.0678 22.6505C17.4045 21.2881 20.641 10.0742 27.1664 5.68557Z" fill="#8DD400" stroke="#8DD400" stroke-width="2.03165" stroke-miterlimit="10" stroke-linejoin="round"/>
<path d="M36.6648 21.5788C44.0315 20.0716 51.5309 25.8679 49.7828 28.845C48.7497 30.6032 46.2125 27.4983 39.4737 26.8279C33.0984 26.1936 29.2004 33.5679 27.5038 31.7644C25.8064 29.9617 30.7665 22.7853 36.6648 21.5788Z" fill="#8DD400" stroke="#8DD400" stroke-width="2.03165" stroke-miterlimit="10" stroke-linejoin="round"/>
</svg>
