<svg width="25" height="17" viewBox="0 0 25 17" fill="none" xmlns="http://www.w3.org/2000/svg">
<g clip-path="url(#clip0_115_6981)">
<path d="M16.5916 4.24202L16.5916 4.24187C16.6483 3.80132 16.337 3.39799 15.8964 3.34144L15.8963 3.34142C15.4556 3.28474 15.0524 3.59609 14.9957 4.03676L16.5916 4.24202ZM16.5916 4.24202C16.5351 4.68262 16.1319 4.99412 15.691 4.93753M16.5916 4.24202L15.691 4.93753M15.691 4.93753C15.2502 4.88055 14.939 4.47745 14.9957 4.0368L15.691 4.93753Z" fill="#FFDB1D" stroke="#573F1B"/>
<path d="M12.6145 5.89657C12.9863 5.66536 13.1056 5.17776 12.8803 4.8006L12.6145 5.89657ZM12.6145 5.89657L12.6022 5.90389C12.2208 6.13181 11.7269 6.00744 11.499 5.62595L11.4989 5.62579C11.2711 5.24469 11.3954 4.7506 11.7767 4.52267L11.7889 4.51534C12.1685 4.29741 12.6545 4.42316 12.8802 4.80042L12.6145 5.89657Z" fill="#FFDB1D" stroke="#573F1B"/>
<path d="M19.8386 5.28319L19.8385 5.2831C19.5252 4.96822 19.0157 4.96719 18.7009 5.28058L18.7008 5.28068C18.3859 5.59402 18.3846 6.10351 18.6981 6.41856L19.8386 5.28319ZM19.8386 5.28319C20.152 5.59802 20.1509 6.10752 19.8361 6.421L19.8386 5.28319ZM19.836 6.42102C19.5212 6.73447 19.0119 6.73339 18.6982 6.41861L19.836 6.42102Z" fill="#FFDB1D" stroke="#573F1B"/>
<path d="M17.4837 12.3384L17.8423 12.6869L17.4837 12.3384C17.1882 12.6423 16.9266 12.7567 16.7029 12.7889C16.4713 12.8221 16.2232 12.7752 15.9471 12.6595C15.6678 12.5424 15.3903 12.3682 15.103 12.1767C15.0602 12.1482 15.0165 12.1187 14.9721 12.0888C14.7382 11.9313 14.485 11.7608 14.254 11.647C14.023 11.5332 13.7335 11.4364 13.4661 11.3469C13.4153 11.3299 13.3653 11.3131 13.3167 11.2966C12.9897 11.1855 12.6825 11.0716 12.4194 10.9215C12.1594 10.7731 11.9711 10.605 11.8563 10.4012C11.7454 10.2042 11.6767 9.92702 11.7377 9.50749C11.8578 8.6803 12.5946 7.87327 13.6148 7.37104C14.6348 6.86893 15.7491 6.76564 16.4812 7.12632C17.2132 7.48699 17.8104 8.43344 18.0338 9.5481C18.2573 10.663 18.0664 11.739 17.4837 12.3384Z" fill="#FFDB1D" stroke="#573F1B"/>
<path d="M21.4108 9.25546C21.3522 8.82169 20.9564 8.51306 20.5198 8.56396L21.4108 9.25546ZM21.4108 9.25546L21.4124 9.26967C21.464 9.71089 21.148 10.1105 20.707 10.1621L20.7069 10.1621C20.2655 10.2139 19.8659 9.89808 19.8142 9.45681L19.8126 9.44272C19.7693 9.00697 20.0832 8.61524 20.5196 8.56398L21.4108 9.25546Z" fill="#FFDB1D" stroke="#573F1B"/>
</g>
<g clip-path="url(#clip1_115_6981)">
<path d="M3.35712 7.75331L3.35703 7.75318C3.24679 7.58139 3.01807 7.5315 2.8464 7.64174L2.84628 7.64181C2.67449 7.75205 2.62456 7.98078 2.73481 8.15262L3.35712 7.75331ZM3.35712 7.75331C3.46733 7.92493 3.41761 8.1536 3.24589 8.26404M3.35712 7.75331L3.24589 8.26404M3.24589 8.26404C3.0738 8.37441 2.84511 8.32443 2.73483 8.15264L3.24589 8.26404Z" fill="#FFDB1D" stroke="#573F1B"/>
<path d="M2.01555 10.1676L2.01555 10.1676C2.08244 9.97464 1.98019 9.76401 1.78731 9.69713C1.59429 9.63042 1.38377 9.73267 1.31687 9.92536L2.01555 10.1676ZM2.01555 10.1676C1.94869 10.3605 1.73817 10.4627 1.54526 10.3958L1.54509 10.3957M2.01555 10.1676L1.54509 10.3957M1.54509 10.3957C1.35244 10.329 1.25009 10.1183 1.31683 9.92549L1.54509 10.3957Z" fill="#FFDB1D" stroke="#573F1B"/>
<path d="M5.58671 6.96898L5.58658 6.96897C5.38338 6.95076 5.20375 7.10089 5.18559 7.3042L5.18558 7.30434C5.16735 7.50761 5.31745 7.68733 5.52093 7.70557L5.4763 8.20357L5.52066 7.70554C5.72428 7.72368 5.90383 7.5735 5.92203 7.37015L5.58671 6.96898ZM5.58671 6.96898C5.79001 6.98715 5.94019 7.16678 5.92203 7.37012L5.58671 6.96898Z" fill="#FFDB1D" stroke="#573F1B"/>
<path d="M3.41817 12.3446C3.16559 11.9365 3.17718 11.2723 3.47148 10.604C3.76567 9.93603 4.25833 9.4576 4.71717 9.34497C5.17601 9.23234 5.83421 9.42826 6.40427 9.8841C6.97454 10.3401 7.2924 10.9235 7.25748 11.4022L7.75616 11.4386L7.25748 11.4022C7.23914 11.6536 7.16595 11.7875 7.09394 11.868C7.01665 11.9544 6.90034 12.0241 6.72736 12.0778C6.55108 12.1327 6.34862 12.1614 6.1205 12.1867C6.08838 12.1903 6.05478 12.1939 6.02014 12.1975C5.83391 12.2173 5.61749 12.2402 5.43865 12.2841C5.25981 12.328 5.05736 12.4079 4.88317 12.4766C4.85076 12.4894 4.81933 12.5018 4.78922 12.5135C4.5753 12.5967 4.38253 12.665 4.2009 12.698C4.02268 12.7304 3.88733 12.7225 3.77881 12.6817C3.6777 12.6437 3.55086 12.559 3.41817 12.3446Z" fill="#FFDB1D" stroke="#573F1B"/>
<path d="M7.47688 8.30037C7.61527 8.15361 7.84514 8.14501 7.99394 8.27942L7.99969 8.28483C8.14822 8.42483 8.15508 8.65884 8.01518 8.80725L8.01506 8.80738C7.87504 8.95601 7.64115 8.96295 7.49258 8.82294L7.48688 8.81758C7.34383 8.67693 7.33889 8.44699 7.47688 8.30037Z" fill="#FFDB1D" stroke="#573F1B"/>
</g>
<defs>
<clipPath id="clip0_115_6981">
<rect width="12" height="12" fill="white" transform="translate(13.3033) rotate(26.2277)"/>
</clipPath>
<clipPath id="clip1_115_6981">
<rect width="8" height="8" fill="white" transform="translate(0 6.90723) rotate(-13.7918)"/>
</clipPath>
</defs>
</svg>
