<svg width="50" height="50" viewBox="0 0 50 50" fill="none" xmlns="http://www.w3.org/2000/svg">
<g id="&#232;&#130;&#137;&#231;&#144;&#131;&#227;&#129;&#174;&#227;&#130;&#162;&#227;&#130;&#164;&#227;&#130;&#179;&#227;&#131;&#179;1 7" clip-path="url(#clip0_109_6279)">
<g id="Group">
<path id="Vector" d="M18.6914 16.0277C21.5313 15.0547 23.0456 11.9635 22.0725 9.12351C21.1006 6.28445 18.01 4.76882 15.1695 5.74207C12.3295 6.71433 10.8152 9.80535 11.7875 12.6454C12.7603 15.4862 15.851 16.9992 18.6914 16.0277Z" fill="#4B4B4B"/>
<path id="Vector_2" d="M9.99947 24.4886V24.4896C11.6309 21.9686 10.9092 18.6023 8.38971 16.9715C5.8692 15.3415 2.50367 16.0617 0.872323 18.5817V18.5827C-0.758048 21.1027 -0.0364664 24.4682 2.48316 26.0981C5.00357 27.7298 8.36861 27.0088 9.99947 24.4886Z" fill="#4B4B4B"/>
<path id="Vector_3" d="M31.3086 16.0278C34.149 16.9993 37.2397 15.4863 38.2124 12.6454C39.1847 9.80544 37.6704 6.71432 34.8305 5.74206C31.9901 4.76881 28.8994 6.28454 27.9276 9.1235C26.9544 11.9635 28.4687 15.0548 31.3086 16.0278Z" fill="#4B4B4B"/>
<path id="Vector_4" d="M25 18.6997C16.4086 18.6997 6.92891 30.5958 9.67325 39.0604C12.3229 47.2326 20.6011 43.8645 25 43.8645C29.3989 43.8645 37.6771 47.2326 40.3267 39.0604C43.0711 30.5958 33.5914 18.6997 25 18.6997Z" fill="#4B4B4B"/>
<path id="Vector_5" d="M49.1277 18.5827V18.5817C47.4964 16.0617 44.1311 15.3415 41.6106 16.9715C39.0909 18.6023 38.3693 21.9686 40.0006 24.4896V24.4886C41.6315 27.0088 44.9965 27.7299 47.517 26.0981C50.0365 24.4682 50.7582 21.1028 49.1277 18.5827Z" fill="#4B4B4B"/>
</g>
</g>
<defs>
<clipPath id="clip0_109_6279">
<rect width="50" height="50" fill="white"/>
</clipPath>
</defs>
</svg>
