<svg width="67" height="33" viewBox="0 0 67 33" fill="none" xmlns="http://www.w3.org/2000/svg">
<path d="M55.354 9.56148C55.2868 9.56148 49.5144 8.82976 47.6389 7.55465C44.0627 5.12336 39.4994 2.99764 35.2203 2.37413C23.8926 0.724088 -1.82807 4.07621 2.48178 21.6577C5.46191 33.8141 31.8239 31.017 39.454 27.1264C45.6095 23.9874 50.5534 19.261 55.2593 14.462C56.8182 12.8723 60.7458 20.0918 63.1615 17.6283C64.2385 16.53 64.6783 13.3125 64.8548 11.8722C66.3821 -0.589828 55.3581 9.56148 55.354 9.56148Z" fill="#E0F7FD" stroke="#C5EAFF" stroke-width="3.84733" stroke-miterlimit="10" stroke-linecap="round" stroke-linejoin="round"/>
<path d="M12.0805 15.8369C12.0441 15.8369 12.0076 15.8369 11.9712 15.8369Z" fill="#757A7E"/>
<path d="M12.0805 15.8369C12.0441 15.8369 12.0076 15.8369 11.9712 15.8369" stroke="#757A7E" stroke-width="2.03165" stroke-miterlimit="10" stroke-linecap="round" stroke-linejoin="round"/>
<path d="M26.9125 13.3066C26.1658 14.0672 25.7795 16.1063 25.4832 17.1154Z" fill="#757A7E"/>
<path d="M26.9125 13.3066C26.1658 14.0672 25.7795 16.1063 25.4832 17.1154" stroke="#757A7E" stroke-width="2.03165" stroke-miterlimit="10" stroke-linecap="round" stroke-linejoin="round"/>
<path d="M29.8023 13.1396C29.8023 14.2834 28.999 15.3587 28.731 16.4521Z" fill="#757A7E"/>
<path d="M29.8023 13.1396C29.8023 14.2834 28.999 15.3587 28.731 16.4521" stroke="#757A7E" stroke-width="2.03165" stroke-miterlimit="10" stroke-linecap="round" stroke-linejoin="round"/>
<path d="M33.2136 12.5098C33.4071 13.8931 32.194 15.3053 32.0442 16.6836Z" fill="#757A7E"/>
<path d="M33.2136 12.5098C33.4071 13.8931 32.194 15.3053 32.0442 16.6836" stroke="#757A7E" stroke-width="2.03165" stroke-miterlimit="10" stroke-linecap="round" stroke-linejoin="round"/>
<path d="M36.9163 12.4775C36.4175 13.4966 35.4546 15.3738 35.4546 16.5184Z" fill="#757A7E"/>
<path d="M36.9163 12.4775C36.4175 13.4966 35.4546 15.3738 35.4546 16.5184" stroke="#757A7E" stroke-width="2.03165" stroke-miterlimit="10" stroke-linecap="round" stroke-linejoin="round"/>
</svg>
