<svg width="58" height="41" viewBox="0 0 58 41" fill="none" xmlns="http://www.w3.org/2000/svg">
<path d="M2 20.466C2 10.2672 10.5291 2 21.0504 2C31.5724 2 40.1015 10.2672 40.1015 20.466C40.1015 30.664 31.5724 38.932 21.0504 38.932C10.5291 38.932 2 30.664 2 20.466Z" fill="#FFA9A9" stroke="#FFA9A9" stroke-width="3.97996" stroke-miterlimit="10" stroke-linejoin="round"/>
<path opacity="0.804307" d="M10.755 13.8408C9.71536 17.7599 16.7598 30.8766 20.0682 32.4581" stroke="#825B13" stroke-opacity="0.779279" stroke-width="2.12823" stroke-miterlimit="10" stroke-linecap="round" stroke-linejoin="round"/>
<path opacity="0.804307" d="M15.4063 14.0107C15.1492 18.3063 19.3533 23.6736 22.2644 25.9003" stroke="#825B13" stroke-opacity="0.779279" stroke-width="2.12823" stroke-miterlimit="10" stroke-linecap="round" stroke-linejoin="round"/>
<path opacity="0.804307" d="M18.0558 5.00977C16.7791 8.25895 28.7679 29.9774 33.0473 31.3591" stroke="#825B13" stroke-opacity="0.779279" stroke-width="2.12823" stroke-miterlimit="10" stroke-linecap="round" stroke-linejoin="round"/>
<path opacity="0.804307" d="M23.9846 12.5351C26.5842 13.1203 31.6246 7.79817 31.992 4.97559" stroke="#825B13" stroke-opacity="0.779279" stroke-width="2.12823" stroke-miterlimit="10" stroke-linecap="round" stroke-linejoin="round"/>
<path opacity="0.804307" d="M29.4922 14.8886C31.9166 14.4044 33.1933 13.3137 34.6228 11.041" stroke="#825B13" stroke-opacity="0.779279" stroke-width="2.12823" stroke-miterlimit="10" stroke-linecap="round" stroke-linejoin="round"/>
<path opacity="0.804307" d="M31.6609 19.0058C33.937 19.7406 37.384 17.0948 38.332 15.0078" stroke="#825B13" stroke-opacity="0.779279" stroke-width="2.12823" stroke-miterlimit="10" stroke-linecap="round" stroke-linejoin="round"/>
<path opacity="0.804307" d="M8.70163 21.7021C7.17155 22.9655 4.79109 24.2173 2.82129 23.5811" stroke="#825B13" stroke-opacity="0.779279" stroke-width="2.12823" stroke-miterlimit="10" stroke-linecap="round" stroke-linejoin="round"/>
<path opacity="0.804307" d="M10.3246 26.3984C9.29017 27.2533 6.50726 30.6257 5.13965 28.6095" stroke="#825B13" stroke-opacity="0.779279" stroke-width="2.12823" stroke-miterlimit="10" stroke-linecap="round" stroke-linejoin="round"/>
<path opacity="0.804307" d="M14.36 30.6152C12.309 31.8531 10.7036 35.5149 7.67627 34.5376" stroke="#825B13" stroke-opacity="0.779279" stroke-width="2.12823" stroke-miterlimit="10" stroke-linecap="round" stroke-linejoin="round"/>
<path d="M35.8936 32.0152C38.4872 30.1075 40.884 35.3252 42.8292 36.3979C46.1853 38.2489 52.5411 37.6012 56 37.6012" stroke="#FFA9A9" stroke-width="3.84733" stroke-miterlimit="10" stroke-linecap="round" stroke-linejoin="round"/>
</svg>
