<svg width="180" height="150" viewBox="0 0 180 150" fill="none" xmlns="http://www.w3.org/2000/svg">
<g opacity="0.56">
<g opacity="0.1">
<g clip-path="url(#clip0_595_813)">
<path d="M43.6915 106.028C46.5315 105.055 48.0457 101.963 47.0726 99.1235C46.1007 96.2844 43.0101 94.7688 40.1697 95.7421C37.3296 96.7143 35.8154 99.8053 36.7876 102.645C37.7604 105.486 40.8511 106.999 43.6915 106.028Z" fill="#4B4B4B"/>
<path d="M34.9994 114.489V114.49C36.6308 111.969 35.9091 108.603 33.3896 106.972C30.8691 105.342 27.5036 106.062 25.8722 108.582V108.583C24.2419 111.103 24.9634 114.469 27.4831 116.099C30.0035 117.73 33.3685 117.009 34.9994 114.489Z" fill="#4B4B4B"/>
<path d="M56.3088 106.028C59.1492 106.999 62.2398 105.486 63.2126 102.645C64.1848 99.8054 62.6706 96.7143 59.8306 95.7421C56.9902 94.7688 53.8996 96.2845 52.9277 99.1235C51.9546 101.964 53.4688 105.055 56.3088 106.028Z" fill="#4B4B4B"/>
<path d="M49.9997 108.7C41.4083 108.7 31.9286 120.596 34.673 129.061C37.3226 137.233 45.6008 133.865 49.9997 133.865C54.3987 133.865 62.6768 137.233 65.3264 129.061C68.0708 120.596 58.5911 108.7 49.9997 108.7Z" fill="#4B4B4B"/>
<path d="M74.128 108.583V108.582C72.4966 106.062 69.1313 105.342 66.6108 106.972C64.0911 108.603 63.3696 111.969 65.0008 114.49V114.489C66.6317 117.009 69.9967 117.73 72.5172 116.099C75.0367 114.469 75.7584 111.103 74.128 108.583Z" fill="#4B4B4B"/>
</g>
</g>
<g opacity="0.5">
<g opacity="0.2">
<g clip-path="url(#clip1_595_813)">
<path d="M123.692 26.0277C126.531 25.0547 128.046 21.9635 127.073 19.1235C126.101 16.2844 123.01 14.7688 120.17 15.7421C117.33 16.7143 115.815 19.8053 116.788 22.6454C117.76 25.4862 120.851 26.9992 123.692 26.0277Z" fill="#4B4B4B"/>
<path d="M114.999 34.4891V34.4901C116.631 31.9691 115.909 28.6028 113.39 26.9719C110.869 25.342 107.504 26.0622 105.872 28.5822V28.5832C104.242 31.1032 104.963 34.4687 107.483 36.0986C110.003 37.7303 113.369 37.0092 114.999 34.4891Z" fill="#4B4B4B"/>
<path d="M136.309 26.0278C139.149 26.9993 142.24 25.4863 143.213 22.6454C144.185 19.8054 142.671 16.7143 139.831 15.7421C136.99 14.7688 133.9 16.2845 132.928 19.1235C131.955 21.9635 133.469 25.0548 136.309 26.0278Z" fill="#4B4B4B"/>
<path d="M130 28.7002C121.408 28.7002 111.929 40.5963 114.673 49.0608C117.323 57.2331 125.601 53.865 130 53.865C134.399 53.865 142.677 57.2331 145.326 49.0608C148.071 40.5963 138.591 28.7002 130 28.7002Z" fill="#4B4B4B"/>
<path d="M154.128 28.5832V28.5822C152.497 26.0622 149.131 25.342 146.611 26.9719C144.091 28.6028 143.37 31.9691 145.001 34.4901V34.4891C146.632 37.0092 149.997 37.7303 152.517 36.0986C155.037 34.4687 155.758 31.1033 154.128 28.5832Z" fill="#4B4B4B"/>
</g>
</g>
</g>
</g>
<defs>
<clipPath id="clip0_595_813">
<rect width="50" height="50" fill="white" transform="translate(25 90)"/>
</clipPath>
<clipPath id="clip1_595_813">
<rect width="50" height="50" fill="white" transform="translate(105 10)"/>
</clipPath>
</defs>
</svg>
